<svg id="Capa_1" enable-background="new 0 0 511.01 511.01" height="512" viewBox="0 0 511.01 511.01" width="512" xmlns="http://www.w3.org/2000/svg" xmlns:xlink="http://www.w3.org/1999/xlink"><linearGradient id="SVGID_1_" gradientUnits="userSpaceOnUse" x1="149.5" x2="149.5" y1="16.51" y2="200.51"><stop offset=".00000036422" stop-color="#a8abff"/><stop offset="1" stop-color="#fac8ff"/></linearGradient><linearGradient id="SVGID_2_" gradientUnits="userSpaceOnUse" x1="255.505" x2="255.505" y1="0" y2="511.01"><stop offset="0" stop-color="#174fa3"/><stop offset="1" stop-color="#b044af"/></linearGradient><g><g id="Filled_30_"><path d="m490.996 65.864-95.263-55c-11.957-6.904-27.247-2.807-34.151 9.151-6.904 11.957-2.807 27.247 9.151 34.151l4.33 2.5-162.32 241.146 121.244 70 127.68-261.147 4.33 2.5c11.957 6.904 27.247 2.807 34.151-9.151 6.902-11.957 2.805-27.247-9.152-34.15z" fill="#fff"/><path d="m7.5 263.51v20c0 99.411 80.589 180 180 180h-22c-11.046 0-20 8.954-20 20 0 11.046 8.954 20 20 20h180c11.046 0 20-8.954 20-20 0-11.046-8.954-20-20-20h-22c99.411 0 180-80.589 180-180v-20z" fill="#fff"/><path d="m239.254 87.775c-.225-28.493-8.925-49.799-8.925-49.799s-22.968 3.186-47.977 17.239c-14.568-24.564-32.852-38.705-32.852-38.705s-18.283 14.141-32.852 38.705c-25.009-14.053-47.977-17.239-47.977-17.239s-8.7 21.306-8.925 49.799c-28.748.222-50.246 8.845-50.246 8.845s8.866 62.887 62.241 93.429c33.25 19.026 63.809 10.628 77.759-13.319 13.95 23.947 44.509 32.346 77.759 13.319 53.375-30.542 62.241-93.429 62.241-93.429s-21.498-8.623-50.246-8.845z" fill="url(#SVGID_1_)"/><path d="m464.943 117.037c4.344 1.998 8.942 2.971 13.498 2.971 11.24 0 22.189-5.83 28.201-16.244 4.34-7.518 5.494-16.276 3.247-24.661-2.247-8.386-7.625-15.395-15.143-19.734l-95.263-55c-7.518-4.341-16.275-5.494-24.662-3.247-8.385 2.247-15.394 7.625-19.734 15.143-8.45 14.636-4.18 33.177 9.349 42.758l-132.596 196.987h-231.84v27.5c0 88.533 61.681 162.923 144.325 182.474-3.948 4.762-6.325 10.871-6.325 17.526 0 15.163 12.336 27.5 27.5 27.5h180c15.164 0 27.5-12.337 27.5-27.5 0-6.654-2.377-12.764-6.325-17.526 82.644-19.551 144.325-93.941 144.325-182.474v-27.5h-114.003zm-96.865-93.273c2.337-4.048 6.111-6.943 10.626-8.153 4.517-1.21 9.232-.589 13.279 1.748l95.263 55c4.048 2.337 6.944 6.111 8.154 10.626 1.21 4.516.589 9.231-1.748 13.279-4.825 8.357-15.549 11.229-23.906 6.406l-95.262-55c-8.357-4.825-11.231-15.549-6.406-23.906zm9.297 42.896 74.478 43-71.553 146.35h-130.379zm-31.875 404.35c6.893 0 12.5 5.607 12.5 12.5s-5.607 12.5-12.5 12.5h-180c-6.893 0-12.5-5.607-12.5-12.5s5.607-12.5 12.5-12.5zm150.5-187.5c0 4.204-.159 8.371-.456 12.5h-438.044v15h436.299c-13.208 82.092-84.54 145-170.299 145h-136c-25.034 0-48.837-5.366-70.327-15h73.327v-15h-100v.069c-6.709-4.579-13.083-9.615-19.069-15.069h149.069v-15h-163.66c-26.061-30.225-41.84-69.553-41.84-112.5v-12.5h481zm-427.984-86.952c13.396 7.665 27.004 11.389 39.652 11.389 16.435-.001 31.241-6.297 41.832-18.403 10.591 12.107 25.395 18.403 41.832 18.403 12.646 0 26.259-3.726 39.652-11.389 55.921-31.998 65.56-96.175 65.943-98.892l.82-5.819-5.455-2.188c-1.22-.489-19.913-7.823-45.774-9.198-1.428-25.876-8.901-44.474-9.247-45.32l-2.203-5.395-5.771.801c-.912.126-20.9 3.011-44.219 14.731-14.084-21.409-29.805-33.784-30.993-34.702l-4.585-3.545-4.587 3.546c-1.187.918-16.909 13.293-30.993 34.702-23.32-11.72-43.307-14.605-44.219-14.731l-5.771-.801-2.203 5.395c-.346.847-7.819 19.444-9.247 45.32-25.86 1.373-44.553 8.707-45.772 9.197l-5.455 2.188.82 5.819c.384 2.717 10.022 66.894 65.943 98.892zm155.518-13.02c-22.929 13.121-45.578 12.355-59.948-1.014 26.45-6.578 43.932-31.825 43.932-65.878 0-5.995-.45-11.782-1.266-17.349 31.858-8.452 62.195-1.415 74.59 2.321-3.741 15.877-17.274 59.013-57.308 81.92zm1.827-136.95c2.09 6.771 5.2 18.975 6.124 33.805-9.017.407-18.573 1.672-28.331 4.208-2.645-9.618-6.302-18.431-10.443-26.361 13.453-6.633 25.697-10.064 32.65-11.652zm-75.85-20.151c11.942 11.025 43.007 44.14 43.007 90.21 0 31.451-17.288 52.582-43.018 52.582s-43.018-21.131-43.018-52.582c0-45.912 31.095-79.148 43.029-90.21zm-75.872 20.151c6.957 1.589 19.199 5.02 32.651 11.652-4.141 7.93-7.798 16.743-10.443 26.361-9.758-2.536-19.314-3.801-28.331-4.208.923-14.832 4.035-27.036 6.123-33.805zm19.109 52.71c-.816 5.567-1.266 11.354-1.266 17.349 0 34.053 17.482 59.3 43.932 65.878-14.37 13.369-37.02 14.134-59.949 1.014-40.04-22.91-53.57-66.056-57.309-81.919 12.405-3.74 42.738-10.774 74.592-2.322z" fill="url(#SVGID_2_)"/></g></g></svg>